<?xml version="1.0" encoding="utf-8"?>
<!-- Generator: Adobe Illustrator 27.5.0, SVG Export Plug-In . SVG Version: 6.00 Build 0)  -->
<svg version="1.1" xmlns="http://www.w3.org/2000/svg" xmlns:xlink="http://www.w3.org/1999/xlink" x="0px" y="0px"
	 viewBox="0 0 500 500" style="enable-background:new 0 0 500 500;" xml:space="preserve">
<g id="Background_Complete">
	<g>
		<rect y="382.398" style="fill:#EBEBEB;" width="500" height="0.25"/>
		<rect x="416.779" y="398.494" style="fill:#EBEBEB;" width="33.122" height="0.25"/>
		<rect x="322.527" y="401.208" style="fill:#EBEBEB;" width="8.693" height="0.25"/>
		<rect x="396.586" y="389.208" style="fill:#EBEBEB;" width="19.192" height="0.25"/>
		<rect x="52.459" y="390.888" style="fill:#EBEBEB;" width="43.193" height="0.25"/>
		<rect x="104.556" y="390.888" style="fill:#EBEBEB;" width="6.333" height="0.25"/>
		<rect x="131.471" y="395.111" style="fill:#EBEBEB;" width="93.676" height="0.25"/>
		<path style="fill:#EBEBEB;" d="M237.014,337.8H43.915c-3.147,0-5.708-2.561-5.708-5.708V60.66c0-3.147,2.561-5.708,5.708-5.708
			h193.099c3.146,0,5.707,2.561,5.707,5.708v271.432C242.721,335.239,240.16,337.8,237.014,337.8z M43.915,55.203
			c-3.01,0-5.458,2.448-5.458,5.458v271.432c0,3.01,2.448,5.458,5.458,5.458h193.099c3.009,0,5.457-2.448,5.457-5.458V60.66
			c0-3.009-2.448-5.458-5.457-5.458H43.915z"/>
		<path style="fill:#EBEBEB;" d="M453.31,337.8H260.212c-3.147,0-5.707-2.561-5.707-5.708V60.66c0-3.147,2.561-5.708,5.707-5.708
			H453.31c3.148,0,5.708,2.561,5.708,5.708v271.432C459.019,335.239,456.458,337.8,453.31,337.8z M260.212,55.203
			c-3.009,0-5.457,2.448-5.457,5.458v271.432c0,3.01,2.448,5.458,5.457,5.458H453.31c3.01,0,5.458-2.448,5.458-5.458V60.66
			c0-3.009-2.448-5.458-5.458-5.458H260.212z"/>
	</g>
	<g>
		<g>
			<g>
				<polygon style="fill:#F5F5F5;" points="359.657,169.434 407.689,169.434 406.953,162.941 358.922,162.941 				"/>
				<polygon style="fill:#F5F5F5;" points="363.096,199.789 411.128,199.789 410.392,193.296 362.361,193.296 				"/>
				<polygon style="fill:#F5F5F5;" points="366.535,230.145 414.567,230.145 413.831,223.652 365.8,223.652 				"/>
				<polygon style="fill:#F5F5F5;" points="369.974,260.501 418.006,260.501 417.27,254.008 369.239,254.008 				"/>
				<polygon style="fill:#F5F5F5;" points="373.413,290.856 421.445,290.856 420.709,284.363 372.677,284.363 				"/>
				<polygon style="fill:#F5F5F5;" points="376.852,321.212 424.884,321.212 424.148,314.719 376.116,314.719 				"/>
				<polygon style="fill:#F5F5F5;" points="380.291,351.568 428.323,351.568 427.587,345.075 379.555,345.075 				"/>
			</g>
			<g>
				<polygon style="fill:#EBEBEB;" points="428.516,382.454 436.037,382.454 409.705,150.019 402.184,150.019 				"/>
				<polygon style="fill:#EBEBEB;" points="379.574,382.454 387.095,382.454 360.763,150.019 353.242,150.019 				"/>
			</g>
		</g>
		<g>
			
				<rect x="288.501" y="111.152" transform="matrix(-1 -1.224647e-16 1.224647e-16 -1 700.867 229.4453)" style="fill:#F0F0F0;" width="123.864" height="7.142"/>
			<g>
				<path style="fill:#E0E0E0;" d="M311.255,91.705l-0.722-1.004c-0.264-0.367-0.686-0.588-1.124-0.588h-5.083
					c-0.438,0-0.834,0.221-1.056,0.588l-0.605,1.004c-0.222,0.367-0.618,0.588-1.055,0.588h-3.033c-0.723,0-1.275,0.591-1.233,1.32
					l0.982,16.975c0.042,0.729,0.663,1.32,1.386,1.32h24.039c0.723,0,1.275-0.591,1.233-1.32l-0.982-16.975
					c-0.042-0.729-0.663-1.32-1.386-1.32h-10.238C311.941,92.293,311.52,92.072,311.255,91.705z"/>
				<path style="fill:#E6E6E6;" d="M325.02,93.91h-22.023c-0.918,0-1.729,0.738-1.811,1.649l-1.324,14.699
					c-0.082,0.911,0.596,1.649,1.514,1.649h22.023c0.918,0,1.729-0.738,1.811-1.649l1.324-14.699
					C326.616,94.648,325.938,93.91,325.02,93.91z"/>
			</g>
			<g>
				<path style="fill:#E0E0E0;" d="M351.255,91.705l-0.722-1.004c-0.264-0.367-0.686-0.588-1.124-0.588h-5.083
					c-0.438,0-0.834,0.221-1.056,0.588l-0.605,1.004c-0.222,0.367-0.618,0.588-1.055,0.588h-3.033c-0.723,0-1.275,0.591-1.233,1.32
					l0.982,16.975c0.042,0.729,0.663,1.32,1.386,1.32h24.039c0.723,0,1.275-0.591,1.233-1.32l-0.982-16.975
					c-0.042-0.729-0.663-1.32-1.386-1.32h-10.238C351.941,92.293,351.52,92.072,351.255,91.705z"/>
				<path style="fill:#E6E6E6;" d="M365.02,93.91h-22.023c-0.918,0-1.729,0.738-1.811,1.649l-1.324,14.699
					c-0.082,0.911,0.596,1.649,1.514,1.649h22.023c0.918,0,1.729-0.738,1.811-1.649l1.324-14.699
					C366.616,94.648,365.938,93.91,365.02,93.91z"/>
			</g>
			<g>
				<path style="fill:#E0E0E0;" d="M391.255,91.705l-0.722-1.004c-0.264-0.367-0.686-0.588-1.124-0.588h-5.083
					c-0.438,0-0.834,0.221-1.056,0.588l-0.605,1.004c-0.222,0.367-0.618,0.588-1.055,0.588h-3.033c-0.723,0-1.275,0.591-1.233,1.32
					l0.982,16.975c0.042,0.729,0.663,1.32,1.386,1.32h24.039c0.723,0,1.275-0.591,1.233-1.32l-0.982-16.975
					c-0.042-0.729-0.663-1.32-1.386-1.32h-10.238C391.941,92.293,391.52,92.072,391.255,91.705z"/>
				<path style="fill:#E6E6E6;" d="M405.02,93.91h-22.023c-0.918,0-1.729,0.738-1.811,1.649l-1.324,14.699
					c-0.082,0.911,0.596,1.649,1.514,1.649h22.023c0.918,0,1.729-0.738,1.811-1.649l1.324-14.699
					C406.616,94.648,405.938,93.91,405.02,93.91z"/>
			</g>
		</g>
		<g>
			<g>
				<rect x="68.813" y="102.416" style="fill:#F5F5F5;" width="145.73" height="92.699"/>
				<rect x="68.813" y="102.416" style="fill:#E0E0E0;" width="145.73" height="6.282"/>
				<path style="fill:#FAFAFA;" d="M212.376,105.557c0,1.045-0.847,1.892-1.892,1.892c-1.045,0-1.892-0.847-1.892-1.892
					c0-1.045,0.847-1.892,1.892-1.892C211.529,103.665,212.376,104.512,212.376,105.557z"/>
				<path style="fill:#FAFAFA;" d="M206.087,105.557c0,1.045-0.847,1.892-1.892,1.892s-1.892-0.847-1.892-1.892
					c0-1.045,0.847-1.892,1.892-1.892S206.087,104.512,206.087,105.557z"/>
				<path style="fill:#FAFAFA;" d="M199.799,105.557c0,1.045-0.847,1.892-1.892,1.892c-1.045,0-1.892-0.847-1.892-1.892
					c0-1.045,0.847-1.892,1.892-1.892C198.951,103.665,199.799,104.512,199.799,105.557z"/>
			</g>
			<g>
				<path style="fill:#E0E0E0;" d="M95.168,119.587l-0.897-1.248c-0.328-0.457-0.853-0.731-1.397-0.731h-6.321
					c-0.544,0-1.037,0.274-1.313,0.731l-0.753,1.248c-0.276,0.457-0.768,0.731-1.313,0.731h-3.772c-0.899,0-1.586,0.735-1.534,1.642
					l1.221,21.11c0.052,0.907,0.824,1.642,1.724,1.642h29.896c0.899,0,1.586-0.735,1.533-1.642l-1.221-21.11
					c-0.053-0.907-0.824-1.642-1.723-1.642H96.565C96.02,120.319,95.496,120.044,95.168,119.587z"/>
				<path style="fill:#E6E6E6;" d="M112.286,122.33h-27.39c-1.142,0-2.15,0.918-2.252,2.051l-1.647,18.281
					c-0.102,1.133,0.741,2.051,1.883,2.051h27.39c1.142,0,2.15-0.918,2.252-2.051l1.647-18.281
					C114.271,123.249,113.428,122.33,112.286,122.33z"/>
			</g>
			<g>
				<path style="fill:#E0E0E0;" d="M140.777,119.587l-0.897-1.248c-0.328-0.457-0.853-0.731-1.397-0.731h-6.321
					c-0.544,0-1.037,0.274-1.313,0.731l-0.753,1.248c-0.276,0.457-0.768,0.731-1.313,0.731h-3.772c-0.899,0-1.586,0.735-1.534,1.642
					l1.221,21.11c0.052,0.907,0.824,1.642,1.724,1.642h29.896c0.899,0,1.586-0.735,1.533-1.642l-1.221-21.11
					c-0.052-0.907-0.824-1.642-1.723-1.642h-12.733C141.63,120.319,141.105,120.044,140.777,119.587z"/>
				<path style="fill:#E6E6E6;" d="M157.895,122.33h-27.39c-1.142,0-2.15,0.918-2.252,2.051l-1.647,18.281
					c-0.102,1.133,0.741,2.051,1.883,2.051h27.39c1.142,0,2.15-0.918,2.252-2.051l1.647-18.281
					C159.88,123.249,159.037,122.33,157.895,122.33z"/>
			</g>
			<g>
				<path style="fill:#E0E0E0;" d="M186.386,119.587l-0.897-1.248c-0.329-0.457-0.853-0.731-1.397-0.731h-6.321
					c-0.544,0-1.037,0.274-1.313,0.731l-0.753,1.248c-0.276,0.457-0.768,0.731-1.313,0.731h-3.772c-0.899,0-1.586,0.735-1.534,1.642
					l1.221,21.11c0.052,0.907,0.824,1.642,1.724,1.642h29.896c0.899,0,1.586-0.735,1.534-1.642l-1.221-21.11
					c-0.052-0.907-0.824-1.642-1.723-1.642h-12.733C187.239,120.319,186.715,120.044,186.386,119.587z"/>
				<path style="fill:#E6E6E6;" d="M203.504,122.33h-27.39c-1.142,0-2.15,0.918-2.252,2.051l-1.647,18.281
					c-0.102,1.133,0.741,2.051,1.883,2.051h27.39c1.142,0,2.15-0.918,2.252-2.051l1.647-18.281
					C205.489,123.249,204.646,122.33,203.504,122.33z"/>
			</g>
			<g>
				<path style="fill:#E0E0E0;" d="M95.168,158.214l-0.897-1.248c-0.328-0.457-0.853-0.731-1.397-0.731h-6.321
					c-0.544,0-1.037,0.274-1.313,0.731l-0.753,1.248c-0.276,0.457-0.768,0.731-1.313,0.731h-3.772c-0.899,0-1.586,0.735-1.534,1.642
					l1.221,21.11c0.052,0.907,0.824,1.642,1.724,1.642h29.896c0.899,0,1.586-0.735,1.533-1.642l-1.221-21.11
					c-0.053-0.907-0.824-1.642-1.723-1.642H96.565C96.02,158.945,95.496,158.671,95.168,158.214z"/>
				<path style="fill:#E6E6E6;" d="M112.286,160.957h-27.39c-1.142,0-2.15,0.918-2.252,2.051l-1.647,18.281
					c-0.102,1.133,0.741,2.051,1.883,2.051h27.39c1.142,0,2.15-0.918,2.252-2.051l1.647-18.281
					C114.271,161.875,113.428,160.957,112.286,160.957z"/>
			</g>
			<g>
				<path style="fill:#E0E0E0;" d="M140.777,158.214l-0.897-1.248c-0.328-0.457-0.853-0.731-1.397-0.731h-6.321
					c-0.544,0-1.037,0.274-1.313,0.731l-0.753,1.248c-0.276,0.457-0.768,0.731-1.313,0.731h-3.772c-0.899,0-1.586,0.735-1.534,1.642
					l1.221,21.11c0.052,0.907,0.824,1.642,1.724,1.642h29.896c0.899,0,1.586-0.735,1.533-1.642l-1.221-21.11
					c-0.052-0.907-0.824-1.642-1.723-1.642h-12.733C141.63,158.945,141.105,158.671,140.777,158.214z"/>
				<path style="fill:#E6E6E6;" d="M157.895,160.957h-27.39c-1.142,0-2.15,0.918-2.252,2.051l-1.647,18.281
					c-0.102,1.133,0.741,2.051,1.883,2.051h27.39c1.142,0,2.15-0.918,2.252-2.051l1.647-18.281
					C159.88,161.875,159.037,160.957,157.895,160.957z"/>
			</g>
			<g>
				<path style="fill:#E0E0E0;" d="M186.386,158.214l-0.897-1.248c-0.329-0.457-0.853-0.731-1.397-0.731h-6.321
					c-0.544,0-1.037,0.274-1.313,0.731l-0.753,1.248c-0.276,0.457-0.768,0.731-1.313,0.731h-3.772c-0.899,0-1.586,0.735-1.534,1.642
					l1.221,21.11c0.052,0.907,0.824,1.642,1.724,1.642h29.896c0.899,0,1.586-0.735,1.534-1.642l-1.221-21.11
					c-0.052-0.907-0.824-1.642-1.723-1.642h-12.733C187.239,158.945,186.715,158.671,186.386,158.214z"/>
				<path style="fill:#E6E6E6;" d="M203.504,160.957h-27.39c-1.142,0-2.15,0.918-2.252,2.051l-1.647,18.281
					c-0.102,1.133,0.741,2.051,1.883,2.051h27.39c1.142,0,2.15-0.918,2.252-2.051l1.647-18.281
					C205.489,161.875,204.646,160.957,203.504,160.957z"/>
			</g>
		</g>
		<g>
			<g>
				<g>
					<path style="fill:#E0E0E0;" d="M92.2,348.717c0.011-0.35,1.189-35.107,6.842-40.604c5.499-5.345,11.81-0.199,12.075,0.022
						l0.567-0.679c-0.071-0.06-7.194-5.874-13.259,0.022c-5.908,5.745-7.063,39.765-7.109,41.211L92.2,348.717z"/>
				</g>
				<g>
					<path style="fill:#E0E0E0;" d="M91.714,355.548c0.041-0.416,3.864-41.726-11.223-59.04l-0.667,0.581
						c14.836,17.027,11.049,57.961,11.009,58.373L91.714,355.548z"/>
				</g>
				<g>
					<path style="fill:#E0E0E0;" d="M92.272,351.178l0.883-0.059c-0.031-0.468-2.953-46.964,8.114-57.142l-0.599-0.652
						C89.294,303.79,92.145,349.247,92.272,351.178z"/>
				</g>
				<g>
					<path style="fill:#E0E0E0;" d="M90.832,351.152l0.885-0.007c-0.011-1.281-0.365-31.406-8.922-36.31
						c-1.902-1.091-3.765-1.273-5.537-0.54c-5.174,2.14-7.739,11.349-7.845,11.74l0.854,0.233c0.025-0.092,2.557-9.182,7.331-11.156
						c1.505-0.621,3.105-0.457,4.758,0.49C90.474,320.256,90.829,350.844,90.832,351.152z"/>
				</g>
				<g>
					<path style="fill:#E0E0E0;" d="M94.164,351.174l0.883-0.05c-0.013-0.238-1.291-23.806,5.07-32.11
						c1.541-2.012,3.214-2.971,4.981-2.847c4.168,0.291,7.663,6.39,7.697,6.451l0.771-0.436c-0.152-0.268-3.762-6.573-8.405-6.898
						c-2.077-0.148-4.013,0.928-5.747,3.192C92.854,327.04,94.107,350.193,94.164,351.174z"/>
				</g>
				<g>
					<path style="fill:#E0E0E0;" d="M92.769,354.379c0.173-2.286,4.158-56.101-2.853-65.584l-0.711,0.525
						c6.817,9.221,2.724,64.434,2.682,64.991L92.769,354.379z"/>
				</g>
			</g>
			<g>
				<path style="fill:#EBEBEB;" d="M75.351,319.749c0,0,4.206,1.551,2.956,5.211c-1.25,3.661-14.551,9.686-14.551,9.686
					s-5.57-5.106-0.455-13.409S75.237,317.129,75.351,319.749z"/>
			</g>
			<g>
				<path style="fill:#EBEBEB;" d="M93.636,312.781c0,0-4.479-0.187-4.733,3.673c-0.255,3.86,9.703,14.539,9.703,14.539
					s7.106-2.569,5.58-12.202C102.659,309.158,94.749,310.406,93.636,312.781z"/>
			</g>
			<g>
				<path style="fill:#EBEBEB;" d="M97.428,294.303c0,0-2.986-0.321-2.746-2.139c0.241-1.819,11.608-6.5,18.315,1.07
					c0,0-4.295,7.377-10.503,7.473C96.287,300.803,97.428,294.303,97.428,294.303z"/>
			</g>
			<g>
				<path style="fill:#EBEBEB;" d="M91.863,289.886c0,0,2.704,1.307,3.462-0.363c0.758-1.671-6.414-11.656-16.11-8.779
					c0,0-0.257,8.532,4.961,11.897C89.394,296.006,91.863,289.886,91.863,289.886z"/>
			</g>
			<g>
				<path style="fill:#EBEBEB;" d="M106.002,318.278c0,0-2.061-1.664,0.163-2.476s13.137-0.582,13.251,10.229
					c0,0-12.71,2.112-14.284-2.005S106.002,318.278,106.002,318.278z"/>
			</g>
			<g>
				<path style="fill:#EBEBEB;" d="M80.083,294.032c0,0,2.061-1.664-0.163-2.476c-2.224-0.812-13.137-0.582-13.251,10.229
					c0,0,12.71,2.112,14.284-2.005C82.526,295.661,80.083,294.032,80.083,294.032z"/>
			</g>
			<g>
				<path style="fill:#EBEBEB;" d="M86.802,302.74c0,0,0.181-2.023-1.452-1.23s-7.322,6.931-1.425,12.755
					c0,0,7.938-5.879,6.507-8.941C89.002,302.262,86.802,302.74,86.802,302.74z"/>
			</g>
			<g>
				<path style="fill:#EBEBEB;" d="M107.844,305.623c0,0-1.232-1.614,0.572-1.814c1.804-0.2,9.89,1.958,8.007,10.03
					c0,0-9.851-0.74-10.273-4.094C105.728,306.392,107.844,305.623,107.844,305.623z"/>
			</g>
			<polygon style="fill:#F0F0F0;" points="74.564,381.115 108.364,381.115 112.01,344.109 70.918,344.109 			"/>
			
				<rect x="69.113" y="340.026" transform="matrix(-1 -1.224647e-16 1.224647e-16 -1 182.9281 688.2187)" style="fill:#E6E6E6;" width="44.701" height="8.166"/>
		</g>
	</g>
</g>
<g id="Background_Simple" style="display:none;">
	<g style="display:inline;">
		<path style="fill:#407BFF;" d="M432.567,134.292c-23.305-61.968-127.103-63.539-170.856-25.753
			c-43.753,37.786-59.243,63.211-93.6,44.213c-34.357-18.997-80.473-19.243-87.851,29.88
			c-7.378,49.123,29.008,111.558,94.016,135.251c65.008,23.693,59.105,84.816,148.533,80.981
			c48.758-2.091,54.657-51.859,51.836-93.764C371.824,263.196,459.595,206.158,432.567,134.292z"/>
		<path style="opacity:0.9;fill:#FFFFFF;" d="M432.567,134.292c-23.305-61.968-127.103-63.539-170.856-25.753
			c-43.753,37.786-59.243,63.211-93.6,44.213c-34.357-18.997-80.473-19.243-87.851,29.88
			c-7.378,49.123,29.008,111.558,94.016,135.251c65.008,23.693,59.105,84.816,148.533,80.981
			c48.758-2.091,54.657-51.859,51.836-93.764C371.824,263.196,459.595,206.158,432.567,134.292z"/>
	</g>
</g>
<g id="Shadow_1_">
	<ellipse id="_x3C_Path_x3E__359_" style="fill:#F5F5F5;" cx="250" cy="416.238" rx="193.889" ry="11.323"/>
</g>
<g id="Character">
	<g>
		
			<path style="fill:none;stroke:#263238;stroke-width:0.7068;stroke-linecap:round;stroke-linejoin:round;stroke-miterlimit:10;" d="
			M181.53,240.119c-0.092,3.684-0.76,8.361-3.655,10.969c-3.72,3.35-9.984,0.977-12.367-2.862"/>
		<path style="fill:#EEC1BB;" d="M181.332,268.351l9.026,6.854c0,0,2.312,0.302,2.956,1.147c0.644,0.845,2.817,6.838,2.335,7.57
			c-0.483,0.732-5.326,1.752-6.211,0.727c-0.885-1.025-2.02-6.474-1.925-7.032l-11.613-7.568L181.332,268.351z"/>
		<path style="fill:#407BFF;" d="M187.555,271.819l-3.151,5.386c0,0-16.509-10.33-19.218-11.967c-0.597-0.36-1.813-2.07-3.254-4.573
			c-5.17-8.96-13.214-28.054-5.644-31.834c4.14-2.07,6.53,4.511,6.53,4.511s0.484,2.091,1.215,5.046
			c0.289,1.195,0.618,2.534,0.979,3.934c0,0.021,0.01,0.031,0.01,0.041c1.668,6.54,3.831,14.398,4.861,15.325
			C171.664,259.316,187.555,271.819,187.555,271.819z"/>
		<path style="opacity:0.2;enable-background:new    ;" d="M161.931,260.665c-5.17-8.96-13.214-28.054-5.644-31.834
			c4.14-2.07,6.53,4.511,6.53,4.511s0.484,2.091,1.215,5.046c0,0,0.536,1.545,0.979,3.934c0,0.021,0.01,0.031,0.01,0.041
			C165.855,246.988,166.329,254.723,161.931,260.665z"/>
		<path style="fill:#407BFF;" d="M138.504,248.367c0,0-5.382,1.84-14.416-2.275c-3.936-1.793-13.479-11.537-13.479-11.537
			s8.198-12.124,30.852-16.506c0,0,14.883,1.934,26.107,26.175C167.568,244.225,156.567,250.207,138.504,248.367z"/>
		<path style="fill:#EEC1BB;" d="M156.4,262.393l7.139,8.802c0,0,2.174,0.843,2.599,1.817c0.425,0.974,1.112,7.311,0.469,7.908
			c-0.643,0.596-5.59,0.436-6.206-0.77c-0.616-1.206-0.424-6.769-0.199-7.288l-9.482-10.111L156.4,262.393z"/>
		<polygon style="fill:#E4897B;" points="155.48,398.447 149.415,399.518 146.927,391.248 144.658,383.658 151.651,381.216 
			153.681,390.338 		"/>
		<polygon style="opacity:0.2;enable-background:new    ;" points="153.715,390.525 146.957,391.415 144.673,383.741 
			151.658,381.257 		"/>
		<polygon style="fill:#E4897B;" points="114.989,401.242 108.831,401.242 107.819,392.568 106.904,384.65 114.215,383.436 
			114.629,392.858 		"/>
		<polygon style="opacity:0.2;enable-background:new    ;" points="114.629,392.938 107.819,392.639 106.904,384.686 
			114.215,383.454 		"/>
		<path style="fill:#263238;" d="M123.337,413.442c-0.978-0.792-2.092-1.398-3.288-1.788l0,0c0,0-3.577-3.548-5.298-14.231
			l-4.683-1.221c-1.628-0.395-3.33,0.27-4.26,1.663c-0.13,0.189-0.23,0.396-0.298,0.615c-0.241,1.145-0.408,2.305-0.5,3.471
			c-0.471,3.615-0.067,11.731-0.067,11.731h0.846l0.336-7.365c0.125-2.5,2.039,0.433,2.587,3.125
			c0.548,2.692,1.712,5.558,7.192,5.692C122.298,415.259,124.952,415.009,123.337,413.442z"/>
		<path style="fill:#263238;" d="M164.202,412.721c-0.978-0.792-2.092-1.398-3.288-1.788l0,0c0,0-3.577-3.548-5.298-14.231
			l-4.683-1.221c-1.628-0.395-3.33,0.27-4.26,1.663c-0.13,0.189-0.23,0.396-0.298,0.615c-0.241,1.145-0.408,2.305-0.5,3.471
			c-0.471,3.615-0.067,11.731-0.067,11.731h0.846l0.337-7.365c0.125-2.5,2.038,0.433,2.587,3.125
			c0.548,2.692,1.711,5.558,7.192,5.692C163.163,414.538,165.817,414.288,164.202,412.721z"/>
		<g>
			<g>
				<path style="fill:#263238;" d="M154.285,385.713l-9.97,1.757c-10.061-25.067-17.218-45.991-22.272-63.354
					c-2.722-9.369-4.993-17.701-6.623-25.094l0.306,27.289v61.471H105.9c-23.573-112.273-26.448-131.628,2.233-150.957l3.049-2.784
					c0,0,1.007,5.124,9.671,10.39c7.262,4.414,16.386,4.706,16.386,4.706l-6.581,6.253l1.329,9.775l11.518,59.492L154.285,385.713z"
					/>
			</g>
		</g>
		<g style="opacity:0.2;">
			<g>
				<path style="fill:#FFFFFF;" d="M154.285,385.713l-9.97,1.757c-10.061-25.067-17.218-45.991-22.272-63.354
					c-2.722-9.369-4.993-17.701-6.623-25.094l0.306,27.289v61.471H105.9c-23.573-112.273-26.448-131.628,2.233-150.957l3.049-2.784
					c0,0,1.007,5.124,9.671,10.39c7.262,4.414,16.386,4.706,16.386,4.706l-6.581,6.253l1.329,9.775l11.518,59.492L154.285,385.713z"
					/>
			</g>
		</g>
		<path style="opacity:0.2;enable-background:new    ;" d="M122.044,324.116c-2.722-9.369-4.844-17.701-6.474-25.094
			c0,0,0.164-14.368,1.903-26.168C117.473,272.853,121.789,306.606,122.044,324.116z"/>
		<path d="M111.182,234.039c0,0,8.32,10.908,27.322,14.328l-3.567,2.954c0,0-15.311-1.053-26.805-14.498L111.182,234.039z"/>
		<g>
			<path style="fill:#FFFFFF;" d="M132.516,247.673c-0.137-0.365-0.449-0.673-0.866-0.842l-2.992-1.223
				c-0.775-0.316-1.682-0.096-2.111,0.513l-1.054,1.497c-0.229,0.326-0.282,0.723-0.145,1.089c0.123,0.328,0.39,0.609,0.742,0.785
				c0.041,0.021,0.084,0.039,0.127,0.057l2.996,1.219c0.774,0.315,1.68,0.094,2.108-0.514l1.051-1.493
				C132.599,248.436,132.652,248.04,132.516,247.673z M129.568,250.138l-2.995-1.219c-0.206-0.082-0.354-0.228-0.421-0.408
				c-0.067-0.18-0.042-0.367,0.07-0.527l1.054-1.498c0.208-0.295,0.647-0.402,1.023-0.249l2.992,1.223
				c0.021,0.009,0.042,0.018,0.062,0.028c0.171,0.086,0.297,0.219,0.357,0.38c0.067,0.18,0.042,0.367-0.071,0.527l-0.16,0.227
				c-0.033-0.023-0.063-0.05-0.104-0.067l-0.834-0.349c-0.277-0.116-0.613-0.024-0.747,0.205c-0.133,0.229-0.016,0.511,0.262,0.627
				l0.834,0.349c0.014,0.006,0.029,0.005,0.044,0.01l-0.346,0.492C130.382,250.183,129.943,250.29,129.568,250.138z"/>
		</g>
		<path style="fill:#263238;" d="M183.458,215.589c1.349,1.674,3.565,5.156,2.852,10.988c-0.713,5.832-2.546,14.303-1.528,19.591
			c1.018,5.288-1.733,10.483-4.228,10.585c0,0,3.065-2.207,2.933-5.432c-0.131-3.225-0.946-8.641-0.946-8.641
			s-0.428,5.463-4.033,7.527c-3.606,2.064-12.467-1.297-15.32-9.649c-2.852-8.352-7.414-10.626-9.692-14.245
			c-2.278-3.618-2.147-7.037,3.365-10.249C162.373,212.853,178.725,209.714,183.458,215.589z"/>
		<g>
			<path style="fill:#EEC1BB;" d="M161.056,240.119l-2.606-1.38c-0.01-0.01-0.01-0.01-0.01-0.01c-1.988,3.048-9.825,0-9.825,0
				c-3.461-6.118,1.843-14.573,1.843-14.573c1.504,2.77,6.674,2.77,7.776,2.729c0.134,0,0.206,0,0.206,0L161.056,240.119z"/>
			<path style="opacity:0.2;enable-background:new    ;" d="M161.056,240.119l-2.606-1.38c-0.01-0.01-0.01-0.01-0.01-0.01
				s-3.028-1.226-4.933-1.092c0,0-0.412-6.313,3.934-10.247c0.247-0.227,0.515-0.391,0.793-0.505c0.134,0,0.206,0,0.206,0
				L161.056,240.119z"/>
		</g>
		<g>
			<path style="fill:#263238;" d="M178.149,213.565c0,0,9.486,4.594,6.51,12.695c-2.976,8.101-10.973,8.491-10.973,8.491
				L178.149,213.565z"/>
			<path style="fill:#EEC1BB;" d="M174.906,216.808c6.728,3.87,6.821,8.718,3.325,15.935c-4.369,9.018-9.831,14.069-17.178,7.379
				C151.075,231.036,163.734,210.38,174.906,216.808z"/>
			<path style="fill:#D4827D;" d="M174.099,229.864c0,0-0.079,2.294,0.352,3.917c0,0-1.102,0.583-2.211-0.259L174.099,229.864z"/>
			<g>
				<path style="fill:#263238;" d="M170.297,226.945c-0.305,0.56-0.855,0.849-1.228,0.646c-0.374-0.203-0.429-0.822-0.124-1.382
					c0.305-0.56,0.855-0.85,1.228-0.646C170.547,225.766,170.602,226.385,170.297,226.945z"/>
				<path style="fill:#263238;" d="M170.003,225.505l1.478,0.185C171.481,225.691,170.317,226.385,170.003,225.505z"/>
			</g>
			<g>
				<path style="fill:#263238;" d="M177.324,230.62c-0.305,0.56-0.855,0.849-1.228,0.646c-0.373-0.203-0.429-0.822-0.124-1.382
					c0.305-0.56,0.855-0.849,1.228-0.646C177.573,229.441,177.628,230.06,177.324,230.62z"/>
				<path style="fill:#263238;" d="M177.029,229.18l1.478,0.186C178.507,229.366,177.343,230.061,177.029,229.18z"/>
			</g>
			
				<path style="fill:none;stroke:#263238;stroke-width:0.7068;stroke-linecap:round;stroke-linejoin:round;stroke-miterlimit:10;" d="
				M172.902,222.261c0,0-1.749-1.333-3.503-0.662"/>
			
				<path style="fill:none;stroke:#263238;stroke-width:0.7068;stroke-linecap:round;stroke-linejoin:round;stroke-miterlimit:10;" d="
				M177.956,224.79c0,0,1.442,0.244,2.363,2.095"/>
			<path style="fill:#263238;" d="M161.03,223.917c0,0,6.326-3.718,8.304-8.259c0,0,16.465,2.223,9.338,16.134
				c0,0,8.215-11.267-3.196-18.188c-11.393-6.91-21.114,6.797-18.041,15.274C157.436,228.878,157.095,226.254,161.03,223.917z"/>
			<path style="fill:#263238;" d="M179.585,213.782c0,0,3.877,2.103,4.471,4.497c0.593,2.394-14.361,5.415-20.658,2.752
				c0,0-5.572,3.943-5.962,7.847c0,0-5.311-5.287,0.679-15.156C164.105,203.854,176.64,206.847,179.585,213.782z"/>
			<path style="fill:#EEC1BB;" d="M161.312,225.969c0.578-1.109,0.515-3.585-1.626-4.525c-2.216-0.972-5.672,2.736-1.078,6.749
				C159.268,228.769,160.106,228.283,161.312,225.969z"/>
			
				<path style="fill:none;stroke:#263238;stroke-width:0.7068;stroke-linecap:round;stroke-linejoin:round;stroke-miterlimit:10;" d="
				M184.005,218.944c0,0-7.186,6.804-16.512,4.608"/>
			
				<path style="fill:none;stroke:#263238;stroke-width:0.7068;stroke-linecap:round;stroke-linejoin:round;stroke-miterlimit:10;" d="
				M167.493,232.108c0,0-0.559,2.254,2.129,4.507"/>
		</g>
		<path style="opacity:0.2;enable-background:new    ;" d="M152.477,248.317c-3.986,0.464-8.672,0.597-13.976,0.051
			c0,0-0.958,0.33-2.75,0.391c-0.381-1.627-0.69-3.533-0.782-5.572c-0.268-6.159,1.092-17.096,2.585-19.033
			c1.494-1.936,8.363,0.906,9.177,6.097c0,0,0.937,14.007,2.194,15.212C149.624,246.133,151.21,247.359,152.477,248.317z"/>
		<path style="fill:#407BFF;" d="M141.461,218.944c-10.719,1.559-2.241,34.346,0,36.587c2.241,2.241,15.815,16.196,15.815,16.196
			l4.347-4.482c0,0-12.464-15.924-13.816-17.927c-1.352-2.003-1.076-25.329-1.076-25.329S146.993,218.139,141.461,218.944z"/>
	</g>
</g>
<g id="Filing_cabinet">
	<g>
		<g>
			<rect x="226.147" y="122.521" style="fill:#407BFF;" width="192.703" height="293.393"/>
			<rect x="226.147" y="122.521" style="opacity:0.6;fill:#FFFFFF;" width="192.703" height="293.393"/>
			<rect x="344.012" y="122.521" style="opacity:0.2;enable-background:new    ;" width="74.838" height="293.393"/>
			<rect x="231.793" y="279.506" style="opacity:0.2;enable-background:new    ;" width="105.907" height="105.907"/>
			<rect x="310.945" y="279.506" style="opacity:0.2;enable-background:new    ;" width="26.755" height="105.907"/>
			<polygon style="opacity:0.2;enable-background:new    ;" points="231.793,279.506 262.737,310.45 310.945,310.45 337.7,310.45 
				337.7,279.506 			"/>
			<g>
				<rect x="231.793" y="164.628" style="opacity:0.2;enable-background:new    ;" width="105.907" height="105.907"/>
				<rect x="231.793" y="164.628" style="fill:#407BFF;" width="102.888" height="105.907"/>
				<rect x="231.793" y="164.628" style="opacity:0.7;fill:#FFFFFF;" width="102.888" height="105.907"/>
				<rect x="260.571" y="177.297" style="fill:#FFFFFF;" width="36.791" height="9.495"/>
				<g>
					<path style="opacity:0.1;enable-background:new    ;" d="M313.393,224.411l-9.743-12.845h-1.935v8.72h-2.571l3.302,4.122
						c0.138,0.172,0.016,0.427-0.205,0.427H274.5c-0.495,0-0.962-0.232-1.261-0.626l-2.976-3.923h-11.12l8.03,10.022
						c0.3,0.375,0.755,0.593,1.235,0.593h43.723c0.874,0,1.583-0.708,1.583-1.582v-3.951
						C313.714,225.022,313.602,224.686,313.393,224.411z"/>
					<path style="fill:#407BFF;" d="M302.341,221.604h-52.088c-0.856,0-1.549-0.694-1.549-1.549v-7.582
						c0-0.856,0.694-1.549,1.549-1.549h52.088c0.856,0,1.549,0.694,1.549,1.549v7.582
						C303.89,220.911,303.196,221.604,302.341,221.604z"/>
					<path style="opacity:0.2;fill:#FFFFFF;" d="M289.879,221.604h-39.626c-0.856,0-1.549-0.694-1.549-1.549v-7.582
						c0-0.856,0.694-1.549,1.549-1.549h39.626c0.856,0,1.549,0.694,1.549,1.549v7.582
						C291.429,220.911,290.735,221.604,289.879,221.604z"/>
				</g>
				<path style="fill:none;stroke:#263238;stroke-width:0.5;stroke-linecap:round;stroke-linejoin:round;stroke-miterlimit:10;" d="
					M263.551,183.063c1.999-0.652,3.739-2.064,4.788-3.886c-1.47,1.001-2.4,2.752-2.406,4.531c1.777,0.281,2.579-2.436,4.314-2.914
					c-0.198,0.878-0.396,1.755-0.593,2.633c0.899,0.107,1.839-0.215,2.483-0.851c1.352,0.04,2.712-0.489,3.684-1.431
					c-0.313-0.571-1.086-0.837-1.684-0.579c1.884,0.177,3.768,0.354,5.652,0.532c-0.614-0.268-1.384,0.402-1.237,1.055
					c0.147,0.653,1.075,0.948,1.596,0.528c0.164-0.133,0.287-0.317,0.345-0.52c0.05-0.174,0.057-0.367,0.161-0.515
					c0.196-0.276,0.605-0.249,0.939-0.197c3.396,0.529,6.861,0.618,10.28,0.264"/>
			</g>
			<polygon style="opacity:0.1;enable-background:new    ;" points="337.7,330.022 344.012,337.868 344.012,415.914 249.47,415.914 
				226.147,390.208 			"/>
			<g>
				<rect x="232.451" y="134.978" style="fill:#407BFF;" width="49.194" height="19.187"/>
				<rect x="232.451" y="134.978" style="fill:#FFFFFF;" width="16.418" height="19.187"/>
				<g>
					<path style="fill:#263238;" d="M245.732,141.675c-0.532,2.926-0.84,4.244,0.105,6.42c0.945,2.176,0.441,2.67-0.609,3.033
						c-1.05,0.363-8.995,2.337-9.622-0.546c-0.626-2.883,0.527-2.945,0-5.304s-0.84-5.151,0.084-6.497
						C236.614,137.435,245.732,141.675,245.732,141.675z"/>
					<path style="fill:#407BFF;" d="M233.369,151.768c0,0,2.475-1.846,6.724-1.784c4.249,0.061,8.054,1.784,8.054,1.784v1.415
						h-14.778V151.768z"/>
					<g>
						<path style="fill:#EEC1BB;" d="M243.138,150.598c-0.31,1.32-1.81,1.85-1.81,1.85c-1.38-0.3-3.36-2.28-3.36-2.28
							c1.17-0.67,0.94-2.62,0.67-3.8c0-0.01-0.01-0.03-0.01-0.04c-0.1-0.44-0.2-0.77-0.24-0.88c-0.01-0.02-0.01-0.04-0.01-0.04
							l1.47-0.22l2.17,1.92c0,0-0.04,0.15-0.08,0.38c-0.12,0.59-0.3,1.73-0.11,2.32c0.03,0.09,0.07,0.18,0.12,0.25
							C242.318,150.618,243.138,150.598,243.138,150.598z"/>
						<path style="opacity:0.2;enable-background:new    ;" d="M241.948,150.058c-0.22,0-0.46-0.04-0.72-0.12
							c-1.39-0.43-2.21-2.37-2.59-3.57c0-0.01-0.01-0.03-0.01-0.04c-0.14-0.43-0.22-0.76-0.24-0.88c-0.01-0.02-0.01-0.04-0.01-0.04
							l3.56,2.08c-0.12,0.59-0.3,1.73-0.11,2.32C241.858,149.898,241.898,149.988,241.948,150.058z"/>
					</g>
					<g>
						<path style="fill:#263238;" d="M241.618,137.092c0,0,3.77-0.122,4.174,2.941c0.404,3.062-2.065,4.516-2.065,4.516
							L241.618,137.092z"/>
						<path style="fill:#EEC1BB;" d="M241.13,138.659c2.776,0.108,3.612,1.629,3.704,4.497c0.115,3.585-0.776,6.094-4.217,5.195
							C235.943,147.132,236.52,138.48,241.13,138.659z"/>
						<path style="fill:#D4827D;" d="M243.045,142.932c0,0,0.356,0.74,0.763,1.183c0,0-0.252,0.368-0.744,0.286L243.045,142.932z"/>
						<g>
							<path style="fill:#263238;" d="M241.355,142.639c-0.004,0.228-0.13,0.411-0.282,0.409c-0.152-0.002-0.273-0.189-0.269-0.417
								c0.004-0.228,0.13-0.411,0.282-0.409C241.238,142.223,241.359,142.41,241.355,142.639z"/>
							<path style="fill:#263238;" d="M241.022,142.231l0.499-0.187C241.522,142.044,241.268,142.458,241.022,142.231z"/>
						</g>
						<g>
							<path style="fill:#263238;" d="M244.193,142.635c-0.003,0.228-0.13,0.411-0.282,0.409c-0.152-0.002-0.273-0.189-0.269-0.417
								c0.004-0.228,0.13-0.411,0.282-0.409C244.076,142.22,244.197,142.407,244.193,142.635z"/>
							<path style="fill:#263238;" d="M243.86,142.227l0.499-0.187C244.36,142.04,244.106,142.454,243.86,142.227z"/>
						</g>
						<g>
							<path style="fill:#263238;" d="M240.182,141.22c-0.03,0-0.06-0.01-0.083-0.031c-0.053-0.046-0.058-0.126-0.012-0.179
								c0.485-0.551,1.302-0.42,1.336-0.414c0.069,0.012,0.115,0.077,0.103,0.146c-0.011,0.069-0.078,0.115-0.145,0.104
								c-0.008-0.001-0.714-0.113-1.104,0.332C240.251,141.206,240.217,141.22,240.182,141.22z"/>
						</g>
						<g>
							<path style="fill:#263238;" d="M244.521,141.079c-0.025,0-0.051-0.008-0.074-0.024c-0.535-0.387-0.966-0.259-0.985-0.253
								c-0.067,0.021-0.138-0.016-0.159-0.082c-0.021-0.066,0.015-0.137,0.081-0.159c0.023-0.008,0.566-0.178,1.211,0.289
								c0.057,0.041,0.069,0.12,0.029,0.177C244.599,141.061,244.56,141.079,244.521,141.079z"/>
						</g>
						<path style="fill:#263238;" d="M237.914,143.22c0,0,1.387-2.23,1.258-3.999c0,0,5.588-2.034,5.643,3.56
							c0,0,0.73-4.937-4.038-5.233c-4.76-0.295-5.561,5.665-3.177,7.841C237.6,145.39,237.056,144.615,237.914,143.22z"/>
						<path style="fill:#263238;" d="M242.109,136.922c0,0,1.579,0.022,2.165,0.682s-3.651,4.104-6.089,4.308
							c0,0-1.11,2.176-0.584,3.478c0,0-2.563-0.792-2.305-4.916C235.552,136.35,240.023,135.214,242.109,136.922z"/>
						<path style="fill:#EEC1BB;" d="M238.345,143.824c-0.001-0.448-0.433-1.222-1.268-1.164c-0.864,0.06-1.342,1.81,0.781,2.318
							C238.163,145.051,238.348,144.758,238.345,143.824z"/>
						<g>
							<path style="fill:#263238;" d="M239.902,142.156c-0.056,0-0.108-0.038-0.122-0.095c-0.017-0.068,0.023-0.137,0.091-0.154
								c3.213-0.827,4.367-4.092,4.378-4.125c0.023-0.066,0.093-0.101,0.161-0.079c0.066,0.023,0.101,0.094,0.079,0.161
								c-0.012,0.034-1.207,3.426-4.555,4.288C239.923,142.155,239.912,142.156,239.902,142.156z"/>
						</g>
						<g>
							<path style="fill:#263238;" d="M242.749,145.942c-0.009,0-0.018-0.001-0.027-0.003c-1.289-0.281-1.511-1.132-1.52-1.168
								c-0.016-0.068,0.025-0.136,0.093-0.153c0.067-0.015,0.136,0.025,0.153,0.092c0.008,0.031,0.203,0.736,1.329,0.982
								c0.068,0.015,0.111,0.082,0.097,0.151C242.86,145.902,242.807,145.942,242.749,145.942z"/>
						</g>
					</g>
					<g>
						<path style="fill:#263238;" d="M246.337,148.385c-0.052,0-0.101-0.033-0.118-0.085c-0.063-0.186-0.137-0.33-0.216-0.484
							c-0.254-0.498-0.518-1.013-0.29-2.844l0.025-0.197c0.279-2.228,0.596-4.753-1.173-6.312c-0.052-0.045-0.057-0.124-0.011-0.176
							c0.046-0.052,0.126-0.057,0.176-0.011c1.868,1.646,1.542,4.241,1.256,6.531l-0.025,0.197
							c-0.219,1.754,0.016,2.213,0.264,2.699c0.079,0.155,0.161,0.314,0.23,0.517c0.022,0.066-0.013,0.137-0.078,0.159
							C246.364,148.383,246.35,148.385,246.337,148.385z"/>
					</g>
				</g>
				<path style="fill:#FFFFFF;" d="M266.07,139.927h-13.584c-0.66,0-1.194-0.535-1.194-1.194l0,0c0-0.659,0.535-1.194,1.194-1.194
					h13.584c0.659,0,1.194,0.535,1.194,1.194l0,0C267.264,139.392,266.729,139.927,266.07,139.927z"/>
				<path style="fill:#FFFFFF;" d="M275.469,145.709h-23.235c-0.521,0-0.943-0.422-0.943-0.943l0,0c0-0.521,0.422-0.943,0.943-0.943
					h23.235c0.521,0,0.943,0.422,0.943,0.943l0,0C276.412,145.287,275.99,145.709,275.469,145.709z"/>
				<path style="fill:#FFFFFF;" d="M271.469,149.328h-19.235c-0.521,0-0.943-0.422-0.943-0.943l0,0c0-0.521,0.422-0.943,0.943-0.943
					h19.235c0.521,0,0.943,0.422,0.943,0.943l0,0C272.412,148.906,271.99,149.328,271.469,149.328z"/>
			</g>
		</g>
		<g>
			<g>
				<path style="fill:#407BFF;" d="M329.611,291.108h-56.682l-0.577-3.657c-0.133-0.841-0.827-1.425-1.693-1.425h-15.642
					c-0.866,0-1.688,0.584-2.004,1.425l-1.376,3.657h-12.73c-2.421,0-4.599,1.973-4.864,4.406l-7.75,71.006
					c-0.266,2.433,1.481,4.406,3.902,4.406h90.704c2.421,0,4.599-1.973,4.864-4.406l7.75-71.006
					C333.779,293.08,332.032,291.108,329.611,291.108z"/>
				<path style="opacity:0.4;enable-background:new    ;" d="M329.611,291.108h-56.682l-0.577-3.657
					c-0.133-0.841-0.827-1.425-1.693-1.425h-15.642c-0.866,0-1.688,0.584-2.004,1.425l-1.376,3.657h-12.73
					c-2.421,0-4.599,1.973-4.864,4.406l-7.75,71.006c-0.266,2.433,1.481,4.406,3.902,4.406h90.704c2.421,0,4.599-1.973,4.864-4.406
					l7.75-71.006C333.779,293.08,332.032,291.108,329.611,291.108z"/>
				<g>
					<polygon style="fill:#407BFF;" points="226.442,368.204 229.478,294.377 327.543,294.377 322.658,366.582 					"/>
					<polygon style="opacity:0.7;fill:#FFFFFF;" points="226.442,368.204 229.478,294.377 327.543,294.377 322.658,366.582 					"/>
				</g>
				<path style="fill:#407BFF;" d="M319.638,371.201h-90.704c-2.421,0-4.368-1.84-4.35-4.109l0.541-66.22
					c0.019-2.269,1.996-4.109,4.417-4.109h90.704c2.421,0,4.368,1.84,4.35,4.109l-0.541,66.22
					C324.037,369.362,322.059,371.201,319.638,371.201z"/>
				<path style="opacity:0.25;enable-background:new    ;" d="M319.638,371.201h-90.704c-2.421,0-4.368-1.84-4.35-4.109l0.541-66.22
					c0.019-2.269,1.996-4.109,4.417-4.109h90.704c2.421,0,4.368,1.84,4.35,4.109l-0.541,66.22
					C324.037,369.362,322.059,371.201,319.638,371.201z"/>
				<polygon style="opacity:0.15;enable-background:new    ;" points="283.237,296.763 285.079,363.943 235.451,363.943 
					232.572,296.763 				"/>
			</g>
			<g>
				<path style="fill:#407BFF;" d="M268.584,288.858h-56.682l-0.977-3.638c-0.224-0.836-0.982-1.418-1.848-1.418h-15.642
					c-0.866,0-1.624,0.581-1.848,1.418l-0.977,3.638h-12.73c-2.421,0-4.383,1.962-4.383,4.383v70.639
					c0,2.421,1.962,4.383,4.383,4.383h90.704c2.421,0,4.383-1.962,4.383-4.383v-70.639
					C272.967,290.82,271.005,288.858,268.584,288.858z"/>
				<path style="opacity:0.15;enable-background:new    ;" d="M268.584,288.858h-56.682l-0.977-3.638
					c-0.224-0.836-0.982-1.418-1.848-1.418h-15.642c-0.866,0-1.624,0.581-1.848,1.418l-0.977,3.638h-12.73
					c-2.421,0-4.383,1.962-4.383,4.383v70.639c0,2.421,1.962,4.383,4.383,4.383h90.704c2.421,0,4.383-1.962,4.383-4.383v-70.639
					C272.967,290.82,271.005,288.858,268.584,288.858z"/>
				<g>
					<polygon style="fill:#407BFF;" points="173.83,365.557 168.807,292.11 266.872,292.11 269.868,363.943 					"/>
					<polygon style="opacity:0.8;fill:#FFFFFF;" points="173.83,365.557 168.807,292.11 266.872,292.11 269.868,363.943 					"/>
				</g>
				<path style="fill:#407BFF;" d="M267.353,368.538h-90.704c-2.421,0-4.569-1.83-4.798-4.088l-6.687-65.879
					c-0.229-2.258,1.548-4.088,3.968-4.088h90.704c2.421,0,4.569,1.83,4.798,4.088l6.687,65.879
					C271.551,366.708,269.774,368.538,267.353,368.538z"/>
			</g>
			<g>
				<g>
					<polygon style="fill:#407BFF;" points="243.721,344.264 337.7,330.022 337.7,381.187 250.602,397.863 					"/>
					<polygon style="opacity:0.5;fill:#FFFFFF;" points="243.721,344.264 337.7,330.022 337.7,381.187 250.602,397.863 					"/>
					<polygon style="opacity:0.7;fill:#FFFFFF;" points="243.721,344.264 245.044,345.714 337.7,331.46 337.7,330.022 					"/>
					<polygon style="opacity:0.2;enable-background:new    ;" points="259.144,341.927 263.383,342.893 266.872,394.748 
						250.602,397.863 243.721,344.264 					"/>
				</g>
				<g>
					<polygon style="fill:#407BFF;" points="259.144,404.598 153.237,404.598 146.582,300.273 252.489,300.273 					"/>
					<polygon style="opacity:0.7;fill:#FFFFFF;" points="259.144,404.598 153.237,404.598 146.582,300.273 252.489,300.273 					"/>
					<polygon style="opacity:0.2;enable-background:new    ;" points="259.14,404.6 256.13,404.6 249.47,300.27 252.49,300.27 					
						"/>
					<polygon style="fill:#FFFFFF;" points="213.544,322.106 176.753,322.106 176.157,312.753 212.948,312.753 					"/>
					<g>
						<path style="opacity:0.1;enable-background:new    ;" d="M231.939,359.164l-10.551-12.653h-1.935l0.548,8.589h-2.57
							l3.562,4.061c0.149,0.169,0.042,0.421-0.178,0.421h-27.741c-0.495,0-0.976-0.228-1.3-0.617l-3.222-3.865h-11.12l8.659,9.873
							c0.324,0.369,0.792,0.584,1.272,0.584h43.723c0.874,0,1.538-0.698,1.483-1.559l-0.248-3.892
							C232.298,359.765,232.165,359.435,231.939,359.164z"/>
						<path style="fill:#407BFF;" d="M220.71,356.399h-52.088c-0.856,0-1.593-0.683-1.647-1.526l-0.477-7.469
							c-0.054-0.843,0.596-1.526,1.452-1.526h52.088c0.856,0,1.593,0.683,1.647,1.526l0.477,7.469
							C222.216,355.715,221.566,356.399,220.71,356.399z"/>
						<path style="opacity:0.2;fill:#FFFFFF;" d="M208.248,356.399h-39.626c-0.856,0-1.593-0.683-1.647-1.526l-0.477-7.469
							c-0.054-0.843,0.596-1.526,1.452-1.526h39.626c0.856,0,1.593,0.683,1.647,1.526l0.476,7.469
							C209.754,355.715,209.104,356.399,208.248,356.399z"/>
					</g>
					
						<path style="fill:none;stroke:#263238;stroke-width:0.5;stroke-linecap:round;stroke-linejoin:round;stroke-miterlimit:10;" d="
						M179.848,317.438c1.462,0.598,2.869-0.129,3.872-1.166c0.035,0.788-0.234,1.807-0.185,2.704
						c0.705-0.707,1.292-1.54,1.702-2.449c-0.736,1.631,1.202,2.03,2.345,1.461c0.741-0.368,1.333-1.116,1.331-1.944
						c-0.001-0.267-0.111-0.585-0.373-0.636c-0.245-0.048-0.459,0.168-0.596,0.38c-0.457,0.71-1.026,2.67,0.121,2.916
						c1.048,0.225,2.423-1.651,2.727-2.426c-0.613,0.289-1.005,0.99-0.93,1.664c1.153-0.055,2.744,0.23,2.819-1.335
						c-0.099,2.062,1.861,1.364,2.579,0.004c-0.233,0.73,0.854,1.103,1.62,1.086c3.403-0.076,6.806-0.152,10.208-0.227"/>
				</g>
			</g>
		</g>
	</g>
</g>
</svg>
